<svg xmlns="http://www.w3.org/2000/svg" width="30.72" height="30.66" viewBox="0 0 30.72 30.66">
  <g id="add_copy" data-name="add copy" transform="translate(0 -0.03)">
    <path id="Shape" d="M2.395,30.66H0A15.354,15.354,0,0,1,10.316,16.166a8.857,8.857,0,1,1,5.014,1.56A12.95,12.95,0,0,0,2.395,30.659ZM15.33,2.395A6.467,6.467,0,1,0,21.8,8.862,6.475,6.475,0,0,0,15.33,2.395Z" transform="translate(0 0.03)"/>
    <path id="Path" d="M7.426,5.03V0H5.03V5.03H0v2.4H5.03v5.03h2.4V7.426h5.03V5.03Z" transform="translate(18.264 18.234)"/>
  </g>
</svg>
