<svg id="cutlery" xmlns="http://www.w3.org/2000/svg" width="9.72" height="21.6" viewBox="0 0 9.72 21.6">
  <path id="Shape" d="M2.87,21.6h-.7a1.1,1.1,0,0,1-.787-.335,1.067,1.067,0,0,1-.3-.78L1.44,10.074V9.281L.273,8.989A.362.362,0,0,1,0,8.625V8.613A32.15,32.15,0,0,1,.5,4.431a11.86,11.86,0,0,1,.9-2.938C1.9.5,2.517,0,3.24,0A.36.36,0,0,1,3.6.36v9.714l.359,10.41a1.068,1.068,0,0,1-.3.781A1.1,1.1,0,0,1,2.87,21.6ZM2.148,10.44,1.8,20.509a.349.349,0,0,0,.1.256.379.379,0,0,0,.273.115h.691a.383.383,0,0,0,.276-.115.355.355,0,0,0,.1-.257L2.893,10.44ZM2.88.809h0c-.68.345-1.258,1.645-1.671,3.76A31.441,31.441,0,0,0,.736,8.363l1.151.288A.359.359,0,0,1,2.16,9v.72h.72V.809Z" transform="translate(5.76)"/>
  <path id="Shape-2" data-name="Shape" d="M2.15,21.6h-.7a1.1,1.1,0,0,1-.787-.335,1.067,1.067,0,0,1-.3-.78L.717,7.28.19,6.225A1.822,1.822,0,0,1,0,5.42V.36a.36.36,0,0,1,.72,0v3.6h.72V.36a.36.36,0,0,1,.72,0v3.6h.72V.36a.36.36,0,0,1,.72,0V5.42a1.822,1.822,0,0,1-.19.806L2.883,7.28l.356,13.207a1.066,1.066,0,0,1-.3.778A1.1,1.1,0,0,1,2.15,21.6ZM1.431,7.56,1.08,20.506a.356.356,0,0,0,.1.258.379.379,0,0,0,.273.115h.691a.383.383,0,0,0,.276-.115.355.355,0,0,0,.1-.257L2.17,7.56ZM.72,4.68v.74A1.077,1.077,0,0,0,.834,5.9L1.3,6.84h1L2.766,5.9A1.077,1.077,0,0,0,2.88,5.42V4.68Z"/>
</svg>
