<svg xmlns="http://www.w3.org/2000/svg" width="21.4" height="13.333" viewBox="0 0 21.4 13.333">
  <g id="group" transform="translate(0 -0.033)">
    <path id="Shape" d="M2.133,4.267A2.133,2.133,0,1,1,4.267,2.133,2.136,2.136,0,0,1,2.133,4.267Zm0-3.2A1.01,1.01,0,0,0,1.067,2.133,1.01,1.01,0,0,0,2.133,3.2,1.011,1.011,0,0,0,3.2,2.133,1.01,1.01,0,0,0,2.133,1.067Z" transform="translate(15 1)"/>
    <path id="Path" d="M5.867,4.267a.5.5,0,0,1-.533-.533V2.667a1.64,1.64,0,0,0-1.6-1.6H.533A.5.5,0,0,1,0,.533.5.5,0,0,1,.533,0h3.2A2.641,2.641,0,0,1,6.4,2.667V3.733A.5.5,0,0,1,5.867,4.267Z" transform="translate(15 6.333)"/>
    <path id="Shape-2" data-name="Shape" d="M2.133,4.267A2.133,2.133,0,1,1,4.267,2.133,2.136,2.136,0,0,1,2.133,4.267Zm0-3.2A1.01,1.01,0,0,0,1.067,2.133,1.01,1.01,0,0,0,2.133,3.2,1.011,1.011,0,0,0,3.2,2.133,1.01,1.01,0,0,0,2.133,1.067Z" transform="translate(2.133 1)"/>
    <path id="Path-2" data-name="Path" d="M.533,4.267A.5.5,0,0,1,0,3.733V2.667A2.641,2.641,0,0,1,2.667,0h3.2A.5.5,0,0,1,6.4.533a.5.5,0,0,1-.533.533h-3.2a1.64,1.64,0,0,0-1.6,1.6V3.733A.5.5,0,0,1,.533,4.267Z" transform="translate(0 6.333)"/>
    <path id="Shape-3" data-name="Shape" d="M3.2,6.4A3.13,3.13,0,0,1,0,3.2,3.13,3.13,0,0,1,3.2,0,3.13,3.13,0,0,1,6.4,3.2,3.129,3.129,0,0,1,3.2,6.4Zm0-5.333A2.133,2.133,0,1,0,5.333,3.2,2.136,2.136,0,0,0,3.2,1.066Z" transform="translate(7.6 0.033)"/>
    <path id="Path-3" data-name="Path" d="M11.2,5.333a.5.5,0,0,1-.533-.533V2.667a1.64,1.64,0,0,0-1.6-1.6h-6.4a1.64,1.64,0,0,0-1.6,1.6V4.8a.5.5,0,0,1-.533.533A.5.5,0,0,1,0,4.8V2.667A2.641,2.641,0,0,1,2.667,0h6.4a2.641,2.641,0,0,1,2.667,2.667V4.8A.5.5,0,0,1,11.2,5.333Z" transform="translate(4.933 8.033)"/>
  </g>
</svg>
