<svg id="sms" xmlns="http://www.w3.org/2000/svg" width="49.152" height="49.152" viewBox="0 0 49.152 49.152">
  <circle id="Oval" cx="24.576" cy="24.576" r="24.576" transform="translate(0 0)" fill="#1f94b7"/>
  <path id="Path" d="M41.03,0H5.843A5.843,5.843,0,0,0,0,5.843V25.8A5.843,5.843,0,0,0,5.843,31.64a3.589,3.589,0,0,1,3.589,3.59V39.6a1.288,1.288,0,0,0,2.378.687l2.713-4.306A9.3,9.3,0,0,1,22.4,31.64H41.03A5.843,5.843,0,0,0,46.873,25.8V5.843A5.843,5.843,0,0,0,41.03,0Z" transform="translate(2.279 2.622)" fill="#fec753"/>
  <path id="Path-2" data-name="Path" d="M12.239,31.64A5.843,5.843,0,0,1,6.4,25.8V5.843A5.843,5.843,0,0,1,12.239,0h-6.4A5.843,5.843,0,0,0,0,5.843V25.8A5.843,5.843,0,0,0,5.843,31.64a3.589,3.589,0,0,1,3.59,3.59V39.6a1.288,1.288,0,0,0,2.378.687l2.713-4.306a9.291,9.291,0,0,1,1.216-1.536,3.589,3.589,0,0,0-3.5-2.808Z" transform="translate(2.279 2.622)" fill="#e0a336"/>
  <g id="Group" transform="translate(14.144 14.043)">
    <path id="Path-3" data-name="Path" d="M3.028,4.406A2.912,2.912,0,0,1,5.382,5.543a3.007,3.007,0,0,1,.626,2.62,2.938,2.938,0,0,1-1.08,1.764,3.052,3.052,0,0,1-1.958.684H2.964a2.961,2.961,0,0,1-1.843-.626A3.029,3.029,0,0,1,.034,8.408a.678.678,0,0,1,.1-.619.639.639,0,0,1,.547-.281.611.611,0,0,1,.648.482,1.7,1.7,0,0,0,.6.885,1.632,1.632,0,0,0,1.029.353h.029a1.7,1.7,0,0,0,1.044-.346,1.654,1.654,0,0,0,.619-.907,1.682,1.682,0,0,0-.3-1.512,1.624,1.624,0,0,0-1.31-.677A2.784,2.784,0,0,1,1.07,4.96,2.651,2.651,0,0,1,.25,2.995v-.2A2.71,2.71,0,0,1,1.063.813,2.646,2.646,0,0,1,3.014,0h.043a2.656,2.656,0,0,1,1.62.533A2.737,2.737,0,0,1,5.67,1.893a.656.656,0,0,1-.1.619.639.639,0,0,1-.547.281H5.015a.611.611,0,0,1-.633-.454,1.4,1.4,0,0,0-.5-.691,1.341,1.341,0,0,0-.821-.274H3.014a1.318,1.318,0,0,0-.986.418,1.362,1.362,0,0,0-.41,1v.223A1.318,1.318,0,0,0,2.035,4a1.366,1.366,0,0,0,.993.4Z" transform="translate(0.016 0.02)" fill="#fff"/>
    <path id="Path-4" data-name="Path" d="M7.141,0a.659.659,0,0,1,.482.2.647.647,0,0,1,.194.475V9.9a.664.664,0,0,1-.677.677.662.662,0,0,1-.475-.194A.67.67,0,0,1,6.472,9.9V3.463L4.5,7.314a.485.485,0,0,1-.079.108.594.594,0,0,1-.209.187.671.671,0,0,1-.518.036A.631.631,0,0,1,3.3,7.314L1.346,3.477V9.9a.67.67,0,0,1-.194.482.662.662,0,0,1-.475.194A.664.664,0,0,1,0,9.9V.677A.646.646,0,0,1,.194.2.658.658,0,0,1,.677,0,.629.629,0,0,1,1.26.346.02.02,0,0,0,1.267.36l.007.007L3.9,5.522,6.544.367s.01-.012.029-.05C6.587.3,6.592.29,6.587.3a.691.691,0,0,1,.05-.058L6.839,0Z" transform="translate(7.407 0.056)" fill="#fff"/>
    <path id="Path-5" data-name="Path" d="M3.028,4.406A2.912,2.912,0,0,1,5.382,5.543a3.007,3.007,0,0,1,.626,2.62,2.938,2.938,0,0,1-1.08,1.764,3.051,3.051,0,0,1-1.958.684H2.964a2.961,2.961,0,0,1-1.843-.626A3.029,3.029,0,0,1,.034,8.408a.678.678,0,0,1,.1-.619.639.639,0,0,1,.547-.281.611.611,0,0,1,.648.482,1.7,1.7,0,0,0,.6.885,1.632,1.632,0,0,0,1.029.353h.029a1.7,1.7,0,0,0,1.044-.346,1.654,1.654,0,0,0,.619-.907,1.682,1.682,0,0,0-.3-1.512,1.624,1.624,0,0,0-1.31-.677A2.784,2.784,0,0,1,1.07,4.96,2.651,2.651,0,0,1,.25,2.995v-.2A2.71,2.71,0,0,1,1.063.813,2.646,2.646,0,0,1,3.014,0h.043a2.656,2.656,0,0,1,1.62.533A2.738,2.738,0,0,1,5.67,1.893a.656.656,0,0,1-.1.619.639.639,0,0,1-.547.281H5.015a.611.611,0,0,1-.633-.454,1.4,1.4,0,0,0-.5-.691,1.341,1.341,0,0,0-.821-.274H3.014a1.318,1.318,0,0,0-.986.418,1.361,1.361,0,0,0-.41,1v.223A1.318,1.318,0,0,0,2.035,4a1.367,1.367,0,0,0,.994.4Z" transform="translate(16.372 0.02)" fill="#fff"/>
  </g>
  <circle id="Oval-2" data-name="Oval" cx="2.207" cy="2.207" r="2.207" transform="translate(42.93 5.52)" fill="#ffe6a9"/>
  <circle id="Oval-3" data-name="Oval" cx="1.605" cy="1.605" r="1.605" transform="translate(39.701 9.952)" fill="#ffe6a9"/>
</svg>
